<svg width="17" height="17" viewBox="0 0 17 17" fill="none" xmlns="http://www.w3.org/2000/svg">
<path fill-rule="evenodd" clip-rule="evenodd" d="M15.8434 4.22882C15.0841 2.92799 14.0542 1.89804 12.7533 1.13877C11.4522 0.379538 10.0319 0 8.49121 0C6.95072 0 5.52996 0.379538 4.22909 1.13877C2.92814 1.89792 1.89819 2.92787 1.13888 4.22882C0.379538 5.52984 0 6.9506 0 8.49098C0 10.0314 0.379654 11.452 1.13877 12.7531C1.89804 14.0539 2.92799 15.0838 4.22893 15.8432C5.52996 16.6024 6.9506 16.982 8.49105 16.982C10.0315 16.982 11.4523 16.6024 12.7533 15.8432C14.0541 15.0841 15.084 14.0539 15.8433 12.7531C16.6024 11.4521 16.9819 10.0314 16.9819 8.49098C16.9819 6.95044 16.6024 5.52965 15.8434 4.22882ZM8.49109 1.23829C10.3189 1.23829 11.9147 1.84266 13.2782 3.05136L13.14 3.24472C13.0848 3.32224 12.9466 3.47133 12.7255 3.69256C12.5044 3.9136 12.263 4.1238 12.0014 4.32276C11.7396 4.52181 11.3842 4.74842 10.9344 5.00272C10.4847 5.25703 10.0057 5.48012 9.49704 5.67173C8.64948 4.109 7.74298 2.70122 6.77738 1.44829C7.35976 1.30826 7.93094 1.23829 8.49109 1.23829ZM5.39547 1.93467C4.37822 2.41369 3.51598 3.09927 2.80845 3.99093C2.10091 4.88279 1.62921 5.88533 1.39323 6.99823C3.61918 6.99835 5.85241 6.7035 8.09308 6.11384C7.20854 4.54396 6.3094 3.15081 5.39547 1.93467ZM1.72478 11.1059C1.40043 10.2768 1.23829 9.40503 1.23829 8.49098C1.23829 8.38774 1.24208 8.31033 1.24936 8.25879C3.91767 8.25879 6.39796 7.91615 8.69021 7.23054C8.92612 7.68749 9.12145 8.09657 9.27623 8.45783C9.24637 8.47254 9.19882 8.48904 9.13245 8.50751C9.06588 8.52594 9.01809 8.53872 8.98835 8.5462L8.57938 8.6899C8.29918 8.79314 7.93238 8.97007 7.47926 9.22054C7.02603 9.4714 6.54512 9.76973 6.03651 10.1162C5.5279 10.4628 5.00272 10.9216 4.46105 11.493C3.91929 12.0642 3.46417 12.6776 3.09563 13.3336C2.50597 12.6776 2.04906 11.9349 1.72478 11.1059ZM3.86961 14.0854C5.22585 15.1909 6.76631 15.7438 8.49109 15.7438C9.46412 15.7437 10.4074 15.5521 11.3214 15.1687C11.0119 13.3924 10.4957 11.5569 9.77364 9.6627H9.75138L9.72938 9.67381C9.61147 9.71811 9.45297 9.77907 9.25393 9.85644C9.05473 9.93358 8.6827 10.1143 8.13731 10.3979C7.5918 10.682 7.08695 10.9842 6.6226 11.3046C6.15826 11.6253 5.67552 12.0475 5.17427 12.5707C4.67295 13.0939 4.29341 13.6394 4.03547 14.2071L3.86961 14.0854ZM14.5943 12.4103C14.0488 13.2544 13.3669 13.9529 12.549 14.5055C12.2465 12.8103 11.7751 11.0817 11.1336 9.32022C12.6004 9.09148 14.1077 9.19855 15.6555 9.64063C15.4933 10.643 15.1395 11.5665 14.5943 12.4103ZM15.3568 8.34181C15.4673 8.36013 15.5596 8.37686 15.6333 8.39149L15.7439 8.41357C15.7221 6.70342 15.1727 5.19251 14.0966 3.88053L14.0855 3.89168C14.0193 3.98001 13.9493 4.07024 13.8755 4.16256C13.8015 4.25472 13.6414 4.41864 13.3944 4.65448C13.1475 4.89027 12.8859 5.11324 12.6095 5.32352C12.3329 5.53356 11.9646 5.77295 11.5041 6.04205C11.0432 6.31114 10.5584 6.54876 10.0498 6.75527C10.2343 7.14581 10.3965 7.49595 10.5367 7.80552C10.551 7.84974 10.5752 7.91433 10.6083 7.99902C10.6414 8.08383 10.669 8.14467 10.6913 8.18157C10.9566 8.14478 11.231 8.11868 11.5147 8.10416C11.7983 8.08952 12.0695 8.08205 12.3272 8.08205C12.5852 8.08205 12.8394 8.08762 13.0903 8.09862C13.3407 8.10977 13.5766 8.12437 13.7977 8.14288C14.019 8.16132 14.2272 8.18153 14.4225 8.20364C14.6177 8.22579 14.7949 8.24969 14.9531 8.27548C15.1116 8.30127 15.2463 8.32349 15.3568 8.34181Z" fill="white"/>
</svg>
