<svg width="10" height="18" viewBox="0 0 10 18" fill="none" xmlns="http://www.w3.org/2000/svg">
<path fill-rule="evenodd" clip-rule="evenodd" d="M9.45075 0.00371134L7.09887 0C4.4566 0 2.74905 1.72299 2.74905 4.38977V6.41375H0.384338C0.179998 6.41375 0.0145264 6.57668 0.0145264 6.77765V9.71017C0.0145264 9.91113 0.180187 10.0739 0.384338 10.0739H2.74905V17.4735C2.74905 17.6745 2.91453 17.8373 3.11887 17.8373H6.20415C6.40849 17.8373 6.57396 17.6743 6.57396 17.4735V10.0739H9.33887C9.54321 10.0739 9.70868 9.91113 9.70868 9.71017L9.70981 6.77765C9.70981 6.68115 9.67075 6.58874 9.60151 6.52045C9.53226 6.45216 9.43792 6.41375 9.33981 6.41375H6.57396V4.698C6.57396 3.87334 6.77377 3.4547 7.86604 3.4547L9.45038 3.45414C9.65453 3.45414 9.82 3.29122 9.82 3.09043V0.367423C9.82 0.166825 9.65472 0.00408247 9.45075 0.00371134Z" fill="white"/>
</svg>
