<svg width="19" height="18" viewBox="0 0 19 18" fill="none" xmlns="http://www.w3.org/2000/svg">
<path fill-rule="evenodd" clip-rule="evenodd" d="M2.30041 0.0244141C0.909664 0.0244141 0 0.928477 0 2.11735C0 3.28032 0.883346 4.21182 2.24645 4.21182H2.27361C3.69129 4.21182 4.57296 3.28049 4.57296 2.11735C4.54625 0.928477 3.69129 0.0244141 2.30041 0.0244141ZM18.9611 11.0335V17.9808H14.8971V11.4988C14.8971 9.87041 14.3093 8.75913 12.8383 8.75913C11.7153 8.75913 11.0471 9.50805 10.7531 10.2325C10.6459 10.4915 10.6183 10.852 10.6183 11.2145V17.9808H6.55293C6.55293 17.9808 6.60768 7.00234 6.55293 5.86489H10.6179V7.58227C10.614 7.58834 10.6095 7.59462 10.6051 7.60088C10.6002 7.60788 10.5953 7.61484 10.5912 7.62142H10.6179V7.58227C11.1579 6.7579 12.1224 5.58025 14.2813 5.58025C16.956 5.58021 18.9611 7.31192 18.9611 11.0335ZM4.30524 17.9808H0.241445V5.86489H4.30524V17.9808Z" fill="white"/>
</svg>
