<svg width="32" height="32" viewBox="0 0 32 32" fill="none" xmlns="http://www.w3.org/2000/svg">
<path fill-rule="evenodd" clip-rule="evenodd" d="M16 32C24.8366 32 32 24.8366 32 16C32 7.16344 24.8366 0 16 0C7.16344 0 0 7.16344 0 16C0 24.8366 7.16344 32 16 32Z" fill="white"/>
<path d="M20.347 13.1385L20.0687 13.4849V13.4849L20.347 13.1385ZM20.1522 12.9819L20.4305 12.6354C20.3386 12.5616 20.2212 12.5273 20.104 12.54C19.9868 12.5528 19.8795 12.6116 19.8057 12.7035L20.1522 12.9819ZM24.1702 16.2104L23.8919 16.5568C24.0544 16.6875 24.286 16.6875 24.4486 16.5568L24.1702 16.2104ZM24.2114 16.1773L24.5578 15.8989C24.484 15.8071 24.3767 15.7483 24.2595 15.7355C24.1423 15.7227 24.0249 15.757 23.933 15.8309L24.2114 16.1773ZM24.2966 16.2833L23.9501 16.5617C24.0345 16.6667 24.1619 16.7278 24.2966 16.7278V16.2833ZM24.4231 16.2833H24.8675C24.8675 16.0379 24.6685 15.8389 24.4231 15.8389V16.2833ZM24.4231 16.4135H23.9786C23.9786 16.5482 24.0397 16.6756 24.1447 16.76L24.4231 16.4135ZM24.5245 16.495L24.871 16.7734C25.0247 16.5821 24.9943 16.3023 24.8029 16.1486L24.5245 16.495ZM24.4956 16.5311L24.1491 16.2527C24.0185 16.4153 24.0185 16.6468 24.1491 16.8094L24.4956 16.5311ZM24.5245 16.5671L24.8029 16.9135C24.9943 16.7598 25.0247 16.4801 24.871 16.2887L24.5245 16.5671ZM24.4231 16.6486L24.1447 16.3022C24.0397 16.3865 23.9786 16.5139 23.9786 16.6486H24.4231ZM24.4231 16.7833V17.2278C24.6685 17.2278 24.8675 17.0288 24.8675 16.7833H24.4231ZM24.2929 16.7833V16.3389C24.1582 16.3389 24.0308 16.4 23.9464 16.505L24.2929 16.7833ZM24.2114 16.8848L23.933 17.2313C24.0249 17.3051 24.1423 17.3394 24.2595 17.3266C24.3767 17.3139 24.484 17.2551 24.5578 17.1632L24.2114 16.8848ZM24.1702 16.8518L24.4486 16.5053C24.286 16.3747 24.0544 16.3747 23.8919 16.5053L24.1702 16.8518ZM20.347 19.9237L20.0687 19.5772L20.0687 19.5772L20.347 19.9237ZM20.1522 20.0803L19.8057 20.3586C19.8795 20.4505 19.9868 20.5093 20.104 20.5221C20.2212 20.5349 20.3386 20.5006 20.4305 20.4267L20.1522 20.0803ZM19.839 19.6905L19.5606 19.344C19.4687 19.4179 19.4099 19.5252 19.3971 19.6424C19.3844 19.7595 19.4187 19.877 19.4925 19.9689L19.839 19.6905ZM20.0339 19.5339L20.3122 19.8804L20.3122 19.8804L20.0339 19.5339ZM23.4571 16.7833L23.7355 17.1298C23.8825 17.0117 23.939 16.8137 23.8764 16.6358C23.8137 16.4579 23.6457 16.3389 23.4571 16.3389V16.7833ZM6.83178 16.7833H6.38734C6.38734 17.0288 6.58632 17.2278 6.83178 17.2278V16.7833ZM6.83178 16.2833V15.8389C6.58632 15.8389 6.38734 16.0379 6.38734 16.2833H6.83178ZM23.4628 16.2833V16.7278C23.6514 16.7278 23.8194 16.6088 23.882 16.4309C23.9446 16.253 23.8882 16.055 23.7412 15.9369L23.4628 16.2833ZM20.0339 13.5282L20.3122 13.1818L20.3122 13.1818L20.0339 13.5282ZM19.839 13.3716L19.4925 13.0933C19.4187 13.1851 19.3844 13.3026 19.3971 13.4198C19.4099 13.537 19.4687 13.6443 19.5606 13.7181L19.839 13.3716ZM20.6254 12.792L20.4305 12.6354L19.8738 13.3283L20.0687 13.4849L20.6254 12.792ZM24.4486 15.8639L20.6254 12.792L20.0687 13.4849L23.8919 16.5568L24.4486 15.8639ZM23.933 15.8309L23.8919 15.8639L24.4486 16.5568L24.4897 16.5238L23.933 15.8309ZM24.643 16.005L24.5578 15.8989L23.8649 16.4557L23.9501 16.5617L24.643 16.005ZM24.4231 15.8389H24.2966V16.7278H24.4231V15.8389ZM24.8675 16.4135V16.2833H23.9786V16.4135H24.8675ZM24.8029 16.1486L24.7014 16.0671L24.1447 16.76L24.2462 16.8415L24.8029 16.1486ZM24.8421 16.8094L24.871 16.7734L24.1781 16.2167L24.1491 16.2527L24.8421 16.8094ZM24.871 16.2887L24.8421 16.2527L24.1491 16.8094L24.1781 16.8455L24.871 16.2887ZM24.7014 16.9951L24.8029 16.9135L24.2462 16.2206L24.1447 16.3022L24.7014 16.9951ZM24.8675 16.7833V16.6486H23.9786V16.7833H24.8675ZM24.2929 17.2278H24.4231V16.3389H24.2929V17.2278ZM24.5578 17.1632L24.6394 17.0617L23.9464 16.505L23.8649 16.6064L24.5578 17.1632ZM23.8919 17.1982L23.933 17.2313L24.4897 16.5384L24.4486 16.5053L23.8919 17.1982ZM20.6254 20.2701L24.4486 17.1982L23.8919 16.5053L20.0687 19.5772L20.6254 20.2701ZM20.4305 20.4267L20.6254 20.2701L20.0687 19.5772L19.8738 19.7338L20.4305 20.4267ZM19.4925 19.9689L19.8057 20.3586L20.4986 19.8019L20.1854 19.4121L19.4925 19.9689ZM19.7555 19.1874L19.5606 19.344L20.1174 20.037L20.3122 19.8804L19.7555 19.1874ZM23.1787 16.4369L19.7555 19.1874L20.3122 19.8804L23.7355 17.1298L23.1787 16.4369ZM7.08178 17.2278H23.4571V16.3389H7.08178V17.2278ZM6.83178 17.2278H7.08178V16.3389H6.83178V17.2278ZM6.38734 16.2833V16.7833H7.27623V16.2833H6.38734ZM7.08178 15.8389H6.83178V16.7278H7.08178V15.8389ZM23.4628 15.8389H7.08178V16.7278H23.4628V15.8389ZM19.7555 13.8747L23.1844 16.6298L23.7412 15.9369L20.3122 13.1818L19.7555 13.8747ZM19.5606 13.7181L19.7555 13.8747L20.3122 13.1818L20.1174 13.0252L19.5606 13.7181ZM19.8057 12.7035L19.4925 13.0933L20.1854 13.65L20.4986 13.2603L19.8057 12.7035Z" fill="#979797"/>
</svg>
