<?xml version="1.0" encoding="UTF-8"?>
<svg width="109px" height="18px" viewBox="0 0 109 18" version="1.1" xmlns="http://www.w3.org/2000/svg" xmlns:xlink="http://www.w3.org/1999/xlink">
    <!-- Generator: Sketch 52.6 (67491) - http://www.bohemiancoding.com/sketch -->
    <title>logo_social copy 2</title>
    <desc>Created with Sketch.</desc>
    <g id="Page-1" stroke="none" stroke-width="1" fill="none" fill-rule="evenodd">
        <g id="ABOUT-Copy-9" transform="translate(-26.000000, -866.000000)" fill="#FFFFFF">
            <g id="logo_social-copy-2" transform="translate(26.000000, 866.000000)">
                <g id="001-linkedin-logo" transform="translate(90.000000, 0.000000)" fill-rule="nonzero">
                    <path d="M18.9610742,11.033432 L18.9610742,17.9807767 L14.8971021,17.9807767 L14.8971021,11.4987233 C14.8971021,9.87037864 14.3092923,8.75909709 12.8382691,8.75909709 C11.7153295,8.75909709 11.0470673,9.50801942 10.7530742,10.2324757 C10.6458631,10.491466 10.6182668,10.8519466 10.6182668,11.2144806 L10.6182668,17.9807767 L6.55292807,17.9807767 C6.55292807,17.9807767 6.60767981,7.00230583 6.55292807,5.86485437 L10.6178701,5.86485437 L10.6178701,7.58223786 C10.6096265,7.59508252 10.5989142,7.60893204 10.5911555,7.6213835 L10.6178701,7.6213835 L10.6178701,7.58223786 C11.1579374,6.75786408 12.1224408,5.58021845 14.2812993,5.58021845 C16.9559791,5.58017476 18.9610742,7.31188835 18.9610742,11.033432 Z M2.30041067,0.0243786408 C0.909663573,0.0243786408 0,0.928441748 0,2.11731553 C0,3.28028155 0.883345708,4.21178155 2.24645244,4.21178155 L2.27360789,4.21178155 C3.69129002,4.21178155 4.57296056,3.28045631 4.57296056,2.11731553 C4.54624594,0.928441748 3.69129002,0.0243786408 2.30041067,0.0243786408 Z M0.241445476,17.9807767 L4.3052413,17.9807767 L4.3052413,5.86485437 L0.241445476,5.86485437 L0.241445476,17.9807767 Z" id="LinkedIn"></path>
                </g>
                <g id="004-dribbble-logo" transform="translate(0.000000, 1.000000)" fill-rule="nonzero">
                    <path d="M15.8434191,4.22881777 C15.0841116,2.92798861 14.0541595,1.89803645 12.7532916,1.13876765 C11.4521913,0.379537585 10.0318588,0 8.49120957,0 C6.95071526,0 5.52995672,0.379537585 4.22908884,1.13876765 C2.92814351,1.89792027 1.89819134,2.92787244 1.13888383,4.22881777 C0.379537585,5.52984055 0,6.95059909 0,8.49097722 C0,10.0314328 0.379653759,11.451959 1.13876765,12.7530592 C1.89803645,14.0538884 2.92798861,15.0838405 4.22893394,15.8431868 C5.52995672,16.6023781 6.95059909,16.9819544 8.49105467,16.9819544 C10.0315103,16.9819544 11.4523075,16.6023781 12.7532528,15.8431868 C14.0541207,15.0841116 15.0840342,14.0538884 15.8432642,12.7530592 C16.6023781,11.4520752 16.981877,10.0313554 16.981877,8.49097722 C16.9819157,6.95044419 16.6023781,5.52964692 15.8434191,4.22881777 Z M8.49109339,1.23828929 C10.3189226,1.23828929 11.9147153,1.84266059 13.2782392,3.05136446 L13.1400319,3.24471526 C13.0847722,3.32224146 12.9465649,3.4713303 12.7255262,3.69256264 C12.5044487,3.91360137 12.263041,4.12379727 12.0014191,4.3227631 C11.7395649,4.52180638 11.3841526,4.74842141 10.934369,5.00272437 C10.4847403,5.25702733 10.0056811,5.48011845 9.49703645,5.67172665 C8.64947608,4.10900456 7.74297722,2.70121868 6.77738497,1.44829157 C7.35976082,1.30826424 7.93094533,1.23828929 8.49109339,1.23828929 Z M2.80844647,3.99093394 C3.5159795,3.09926651 4.3782164,2.41369021 5.39546697,1.9346697 C6.30940091,3.15080866 7.20854214,4.54395672 8.09308428,6.11384282 C5.85241458,6.70349886 3.61917995,6.99834624 1.39322551,6.9982301 C1.62921185,5.8853303 2.10091344,4.88279499 2.80844647,3.99093394 Z M1.7247836,11.105918 C1.40042825,10.2767517 1.23828929,9.40502733 1.23828929,8.49097722 C1.23828929,8.38773804 1.24208428,8.31032802 1.24936446,8.25878588 C3.91766743,8.25878588 6.39796355,7.91615262 8.69021412,7.23053759 C8.92612301,7.68748519 9.12144875,8.09656948 9.27623007,8.45782916 C9.24637358,8.47254442 9.19882005,8.489041 9.13244647,8.50751253 C9.06587927,8.52594533 9.01809339,8.53872437 8.98835308,8.54619818 L8.57938497,8.68990433 C8.2991754,8.79314351 7.93237813,8.97007517 7.47926424,9.22054442 C7.02603417,9.47140091 6.54511617,9.76973349 6.03651025,10.1162392 C5.52790433,10.4627836 5.00272437,10.92159 4.46104784,11.4930068 C3.91929385,12.0641913 3.46416629,12.6776241 3.09562642,13.3335763 C2.50597039,12.6776241 2.0490615,11.9348519 1.7247836,11.105918 Z M8.49109339,15.7437813 C6.76630979,15.7437813 5.22585421,15.1909134 3.86961048,14.08541 L4.03546697,14.207082 C4.29341002,13.6393827 4.67294761,13.0939112 5.17427335,12.5707062 C5.67552164,12.0475011 6.15825968,11.625328 6.62260364,11.3046128 C7.08694761,10.9842073 7.59179727,10.682041 8.13730752,10.3979203 C8.68270159,10.1143417 9.05472665,9.93357631 9.25392483,9.85643736 C9.45296811,9.77906606 9.61146697,9.7181139 9.72938269,9.67381321 L9.75137813,9.66269932 L9.77364465,9.66269932 C10.495738,11.5569408 11.0119339,13.3923599 11.3213804,15.1686856 C10.4074077,15.5521344 9.46412073,15.7436651 8.49109339,15.7437813 Z M14.594287,12.4103485 C14.0488155,13.254385 13.3668793,13.9528952 12.5489818,14.505492 C12.2465444,12.8102938 11.7750752,11.0816765 11.1336446,9.32022096 C12.6004077,9.09147608 14.1076765,9.19854897 15.6555285,9.64062642 C15.4933121,10.6430456 15.1394875,11.566467 14.594287,12.4103485 Z M15.633262,8.39149431 C15.5595695,8.37685649 15.467328,8.36012756 15.3568087,8.34181093 C15.2462893,8.32349431 15.1116446,8.30126651 14.9531458,8.27547608 C14.7948793,8.24968565 14.6177153,8.22579271 14.4225444,8.20364237 C14.22718,8.18153075 14.0189977,8.16131663 13.7976879,8.14288383 C13.5766492,8.12437358 13.3407403,8.10977449 13.0902711,8.09862187 C12.8393759,8.08762415 12.5852278,8.08204784 12.3272073,8.08204784 C12.0694579,8.08204784 11.7983485,8.08952164 11.5147312,8.10415945 C11.2310364,8.11868109 10.9565581,8.14478132 10.6912574,8.18156948 C10.6689909,8.14466515 10.6414191,8.08382916 10.6082711,7.99902278 C10.5751617,7.91433257 10.5509977,7.84974032 10.5367084,7.80551708 C10.3964875,7.49595444 10.2342711,7.14580866 10.0498269,6.75527335 C10.5584328,6.54875626 11.0431845,6.31114351 11.5041207,6.04204784 C11.964631,5.77295216 12.3328998,5.53355809 12.6094692,5.32351708 C12.8859226,5.11324374 13.1475444,4.89026879 13.3944123,4.65447608 C13.6414351,4.41864465 13.8015216,4.25472437 13.8754852,4.16256036 C13.9492938,4.07024146 14.0192688,3.98001367 14.0855262,3.89168337 L14.0966401,3.88053075 C15.172713,5.19251253 15.7220569,6.70342141 15.7438975,8.4135672 L15.633262,8.39149431 Z" id="Shape"></path>
                </g>
                <g id="002-facebook-logo" transform="translate(48.000000, 0.000000)">
                    <path d="M9.45075472,0.00371134021 L7.09886792,0 C4.45660377,0 2.7490566,1.72298969 2.7490566,4.3897732 L2.7490566,6.41375258 L0.384339623,6.41375258 C0.18,6.41375258 0.0145283019,6.57668041 0.0145283019,6.77764948 L0.0145283019,9.71016495 C0.0145283019,9.91113402 0.180188679,10.0738763 0.384339623,10.0738763 L2.7490566,10.0738763 L2.7490566,17.4735464 C2.7490566,17.6745155 2.9145283,17.8372577 3.11886792,17.8372577 L6.20415094,17.8372577 C6.40849057,17.8372577 6.57396226,17.6743299 6.57396226,17.4735464 L6.57396226,10.0738763 L9.33886792,10.0738763 C9.54320755,10.0738763 9.70867925,9.91113402 9.70867925,9.71016495 L9.70981132,6.77764948 C9.70981132,6.68115464 9.67075472,6.58874227 9.60150943,6.52045361 C9.53226415,6.45216495 9.43792453,6.41375258 9.33981132,6.41375258 L6.57396226,6.41375258 L6.57396226,4.698 C6.57396226,3.87334021 6.77377358,3.45470103 7.86603774,3.45470103 L9.45037736,3.45414433 C9.6545283,3.45414433 9.82,3.29121649 9.82,3.09043299 L9.82,0.36742268 C9.82,0.166824742 9.65471698,0.00408247423 9.45075472,0.00371134021 Z" id="Path"></path>
                </g>
            </g>
        </g>
    </g>
</svg>